HIERARCHY
ROOT Hips
{
	OFFSET 0.000000 71.427986 0.000000
	CHANNELS 6 Xposition Yposition Zposition Xrotation Yrotation Zrotation
	JOINT Pelvis
	{
		OFFSET 0.000000 0.000000 0.000000
		CHANNELS 3 Xrotation Yrotation Zrotation
		JOINT LeftUpLeg
		{
			OFFSET 6.797100 -2.508499 -1.318700
			CHANNELS 3 Xrotation Yrotation Zrotation
			JOINT LeftLeg
			{
				OFFSET 0.069008 -29.241863 0.690200
				CHANNELS 3 Xrotation Yrotation Zrotation
				JOINT LeftFoot
				{
					OFFSET -0.069008 -29.568123 -0.266800
					CHANNELS 3 Xrotation Yrotation Zrotation
					JOINT LeftToeBase
					{
						OFFSET 3.145500 -8.631000 16.059900
						CHANNELS 3 Xrotation Yrotation Zrotation
						End Site
						{
							OFFSET 0.000000 18.501587 0.000000
						}
					}
				}
			}
			JOINT Left_ShortSleeve
			{
				OFFSET 0.265923 -10.480953 1.153800
				CHANNELS 3 Xrotation Yrotation Zrotation
				End Site
				{
					OFFSET 1.725763 19.823879 0.000000
				}
			}
		}
		JOINT RightUpLeg
		{
			OFFSET -6.797100 -2.508499 -1.318700
			CHANNELS 3 Xrotation Yrotation Zrotation
			JOINT RightLeg
			{
				OFFSET -0.082453 -29.241932 0.688000
				CHANNELS 3 Xrotation Yrotation Zrotation
				JOINT RightFoot
				{
					OFFSET 0.082453 -29.568058 -0.264600
					CHANNELS 3 Xrotation Yrotation Zrotation
					JOINT RightToeBase
					{
						OFFSET -3.115300 -8.682800 16.113400
						CHANNELS 3 Xrotation Yrotation Zrotation
						End Site
						{
							OFFSET 0.000000 18.567114 0.000000
						}
					}
				}
			}
			JOINT Right_ShortSleeve
			{
				OFFSET -0.265923 -10.480953 1.153800
				CHANNELS 3 Xrotation Yrotation Zrotation
				End Site
				{
					OFFSET -1.725766 19.823910 0.000000
				}
			}
		}
	}
	JOINT Spine
	{
		OFFSET 0.000000 13.368103 0.470500
		CHANNELS 3 Xrotation Yrotation Zrotation
		JOINT Spine1
		{
			OFFSET 0.147000 13.837402 0.538800
			CHANNELS 3 Xrotation Yrotation Zrotation
			JOINT Spine2
			{
				OFFSET 0.168000 16.242897 -1.435500
				CHANNELS 3 Xrotation Yrotation Zrotation
				JOINT Neck
				{
					OFFSET 0.217200 18.631500 -1.679100
					CHANNELS 3 Xrotation Yrotation Zrotation
					JOINT Head
					{
						OFFSET 0.000000 6.599396 1.385900
						CHANNELS 3 Xrotation Yrotation Zrotation
						JOINT Hat
						{
							OFFSET -0.532200 27.220596 -10.096100
							CHANNELS 3 Xrotation Yrotation Zrotation
							End Site
							{
								OFFSET 0.000000 22.029861 0.000000
							}
						}
						JOINT HairD
						{
							OFFSET -10.777400 17.437393 -1.325900
							CHANNELS 3 Xrotation Yrotation Zrotation
							JOINT HairD1
							{
								OFFSET -3.290299 -11.051193 1.062200
								CHANNELS 3 Xrotation Yrotation Zrotation
								End Site
								{
									OFFSET 0.000000 11.579437 0.000000
								}
							}
						}
						JOINT HairB
						{
							OFFSET -10.777400 17.437393 1.467900
							CHANNELS 3 Xrotation Yrotation Zrotation
							JOINT HairB1
							{
								OFFSET -1.561200 -12.956299 3.590200
								CHANNELS 3 Xrotation Yrotation Zrotation
								End Site
								{
									OFFSET 0.000000 13.534866 0.000000
								}
							}
						}
						JOINT HairA
						{
							OFFSET 9.713100 17.437393 1.467900
							CHANNELS 3 Xrotation Yrotation Zrotation
							JOINT HairA1
							{
								OFFSET 1.561200 -12.956299 3.590200
								CHANNELS 3 Xrotation Yrotation Zrotation
								End Site
								{
									OFFSET 0.000000 13.534866 0.000000
								}
							}
						}
						JOINT HairC
						{
							OFFSET 9.713100 17.437393 -1.325900
							CHANNELS 3 Xrotation Yrotation Zrotation
							JOINT HairC1
							{
								OFFSET 3.290300 -11.051193 1.062200
								CHANNELS 3 Xrotation Yrotation Zrotation
								End Site
								{
									OFFSET 0.000000 11.579437 0.000000
								}
							}
						}
					}
				}
				JOINT LeftShoulder
				{
					OFFSET 5.101800 15.108002 -2.763700
					CHANNELS 3 Xrotation Yrotation Zrotation
					JOINT LeftArm
					{
						OFFSET 9.825497 2.506317 -1.597400
						CHANNELS 3 Xrotation Yrotation Zrotation
						JOINT LeftForeArm
						{
							OFFSET 21.966244 0.000000 0.000000
							CHANNELS 3 Xrotation Yrotation Zrotation
							JOINT LeftHand
							{
								OFFSET 33.879036 0.000000 0.000000
								CHANNELS 3 Xrotation Yrotation Zrotation
								JOINT LeftHandThumb1
								{
									OFFSET 6.715286 -2.359680 3.363841
									CHANNELS 3 Xrotation Yrotation Zrotation
									JOINT LeftHandThumb2
									{
										OFFSET 2.507072 -1.447464 1.447461
										CHANNELS 3 Xrotation Yrotation Zrotation
										JOINT LeftHandThumb3
										{
											OFFSET 2.898338 -1.673355 1.673357
											CHANNELS 3 Xrotation Yrotation Zrotation
											End Site
											{
												OFFSET -0.295959 3.727692 -0.131651
											}
										}
									}
								}
								JOINT LeftHandIndex1
								{
									OFFSET 14.190811 -0.254547 3.840278
									CHANNELS 3 Xrotation Yrotation Zrotation
									JOINT LeftHandIndex2
									{
										OFFSET 3.551727 0.000000 -0.000000
										CHANNELS 3 Xrotation Yrotation Zrotation
										JOINT LeftHandIndex3
										{
											OFFSET 2.894196 0.000000 0.000000
											CHANNELS 3 Xrotation Yrotation Zrotation
											End Site
											{
												OFFSET -1.000603 2.690872 0.366626
											}
										}
									}
								}
								JOINT LeftHandMiddle1
								{
									OFFSET 13.776489 0.000000 0.000000
									CHANNELS 3 Xrotation Yrotation Zrotation
									JOINT LeftHandMiddle2
									{
										OFFSET 3.438232 0.000000 0.000000
										CHANNELS 3 Xrotation Yrotation Zrotation
										JOINT LeftHandMiddle3
										{
											OFFSET 3.691551 0.000000 0.000000
											CHANNELS 3 Xrotation Yrotation Zrotation
											End Site
											{
												OFFSET -1.082298 3.499527 0.457670
											}
										}
									}
								}
								JOINT LeftHandRing1
								{
									OFFSET 13.966164 -0.268127 -3.067488
									CHANNELS 3 Xrotation Yrotation Zrotation
									JOINT LeftHandRing2
									{
										OFFSET 3.162567 0.000000 0.000000
										CHANNELS 3 Xrotation Yrotation Zrotation
										JOINT LeftHandRing3
										{
											OFFSET 3.324348 0.000000 0.000000
											CHANNELS 3 Xrotation Yrotation Zrotation
											End Site
											{
												OFFSET -0.861900 3.184998 0.405154
											}
										}
									}
								}
								JOINT LeftHandPinky1
								{
									OFFSET 13.131393 -0.168503 -5.746925
									CHANNELS 3 Xrotation Yrotation Zrotation
									JOINT LeftHandPinky2
									{
										OFFSET 2.849182 0.000000 0.000000
										CHANNELS 3 Xrotation Yrotation Zrotation
										JOINT LeftHandPinky3
										{
											OFFSET 2.805038 0.000000 0.000000
											CHANNELS 3 Xrotation Yrotation Zrotation
											End Site
											{
												OFFSET -0.882500 2.642609 0.325652
											}
										}
									}
								}
							}
							JOINT Left_Sleeve
							{
								OFFSET 6.592125 -0.646545 0.805568
								CHANNELS 3 Xrotation Yrotation Zrotation
								End Site
								{
									OFFSET -0.000179 20.275787 -0.000000
								}
							}
						}
					}
				}
				JOINT RightShoulder
				{
					OFFSET -5.731700 15.108002 -2.763700
					CHANNELS 3 Xrotation Yrotation Zrotation
					JOINT RightArm
					{
						OFFSET -9.825497 2.506317 -1.597400
						CHANNELS 3 Xrotation Yrotation Zrotation
						JOINT RightForeArm
						{
							OFFSET -21.966242 0.000000 0.000000
							CHANNELS 3 Xrotation Yrotation Zrotation
							JOINT RightHand
							{
								OFFSET -33.879032 0.000000 0.000000
								CHANNELS 3 Xrotation Yrotation Zrotation
								JOINT RightHandThumb1
								{
									OFFSET -6.715286 -2.359680 3.363841
									CHANNELS 3 Xrotation Yrotation Zrotation
									JOINT RightHandThumb2
									{
										OFFSET -2.507072 -1.447464 1.447461
										CHANNELS 3 Xrotation Yrotation Zrotation
										JOINT RightHandThumb3
										{
											OFFSET -2.898338 -1.673355 1.673357
											CHANNELS 3 Xrotation Yrotation Zrotation
											End Site
											{
												OFFSET 0.295959 3.727692 -0.131651
											}
										}
									}
								}
								JOINT RightHandIndex1
								{
									OFFSET -14.190811 -0.254547 3.840278
									CHANNELS 3 Xrotation Yrotation Zrotation
									JOINT RightHandIndex2
									{
										OFFSET -3.551727 0.000000 -0.000000
										CHANNELS 3 Xrotation Yrotation Zrotation
										JOINT RightHandIndex3
										{
											OFFSET -2.894196 0.000000 0.000000
											CHANNELS 3 Xrotation Yrotation Zrotation
											End Site
											{
												OFFSET 1.000603 2.690872 0.366626
											}
										}
									}
								}
								JOINT RightHandMiddle1
								{
									OFFSET -13.776489 0.000000 0.000000
									CHANNELS 3 Xrotation Yrotation Zrotation
									JOINT RightHandMiddle2
									{
										OFFSET -3.438232 0.000000 0.000000
										CHANNELS 3 Xrotation Yrotation Zrotation
										JOINT RightHandMiddle3
										{
											OFFSET -3.691551 0.000000 0.000000
											CHANNELS 3 Xrotation Yrotation Zrotation
											End Site
											{
												OFFSET 1.082298 3.499527 0.457670
											}
										}
									}
								}
								JOINT RightHandRing1
								{
									OFFSET -13.966164 -0.268127 -3.067488
									CHANNELS 3 Xrotation Yrotation Zrotation
									JOINT RightHandRing2
									{
										OFFSET -3.162567 0.000000 0.000000
										CHANNELS 3 Xrotation Yrotation Zrotation
										JOINT RightHandRing3
										{
											OFFSET -3.324348 0.000000 0.000000
											CHANNELS 3 Xrotation Yrotation Zrotation
											End Site
											{
												OFFSET 0.861900 3.184998 0.405154
											}
										}
									}
								}
								JOINT RightHandPinky1
								{
									OFFSET -13.131393 -0.168503 -5.746925
									CHANNELS 3 Xrotation Yrotation Zrotation
									JOINT RightHandPinky2
									{
										OFFSET -2.849182 0.000000 0.000000
										CHANNELS 3 Xrotation Yrotation Zrotation
										JOINT RightHandPinky3
										{
											OFFSET -2.805038 0.000000 0.000000
											CHANNELS 3 Xrotation Yrotation Zrotation
											End Site
											{
												OFFSET 0.882500 2.642609 0.325652
											}
										}
									}
								}
							}
							JOINT Right_Sleeve
							{
								OFFSET -6.592125 -0.646545 0.805568
								CHANNELS 3 Xrotation Yrotation Zrotation
								End Site
								{
									OFFSET 0.000179 20.275787 -0.000000
								}
							}
						}
					}
				}
				JOINT Bind_Right_JacketString
				{
					OFFSET -3.534800 11.969597 7.200700
					CHANNELS 3 Xrotation Yrotation Zrotation
					JOINT Bind_Right_JacketString1
					{
						OFFSET -0.319900 -6.102600 2.794100
						CHANNELS 3 Xrotation Yrotation Zrotation
						End Site
						{
							OFFSET 0.000000 6.719452 0.000000
						}
					}
				}
				JOINT Bind_Left_JacketString
				{
					OFFSET 2.904800 11.969597 7.200700
					CHANNELS 3 Xrotation Yrotation Zrotation
					JOINT Bind_Left_JacketString1
					{
						OFFSET 0.364800 -5.904503 3.186800
						CHANNELS 3 Xrotation Yrotation Zrotation
						End Site
						{
							OFFSET 0.000000 6.719513 0.000000
						}
					}
				}
				JOINT HairE
				{
					OFFSET 5.915200 17.612701 -11.592200
					CHANNELS 3 Xrotation Yrotation Zrotation
					JOINT HairE1
					{
						OFFSET 0.289200 -7.171898 -1.284500
						CHANNELS 3 Xrotation Yrotation Zrotation
						End Site
						{
							OFFSET 0.000000 7.291756 0.000000
						}
					}
				}
				JOINT HairF
				{
					OFFSET -0.864800 17.612701 -11.592200
					CHANNELS 3 Xrotation Yrotation Zrotation
					JOINT HairF1
					{
						OFFSET 0.000000 -14.087097 -2.127501
						CHANNELS 3 Xrotation Yrotation Zrotation
						End Site
						{
							OFFSET 0.000000 14.246841 0.000000
						}
					}
				}
				JOINT HairG
				{
					OFFSET -8.087700 17.612701 -11.592200
					CHANNELS 3 Xrotation Yrotation Zrotation
					JOINT HairG1
					{
						OFFSET -0.293600 -6.081398 -0.910100
						CHANNELS 3 Xrotation Yrotation Zrotation
						End Site
						{
							OFFSET 0.000000 6.156120 0.000000
						}
					}
				}
			}
		}
	}
	JOINT Pouch
	{
		OFFSET 0.000000 4.394501 10.847300
		CHANNELS 3 Xrotation Yrotation Zrotation
		End Site
		{
			OFFSET 0.000000 21.880577 0.000000
		}
	}
	JOINT Bag
	{
		OFFSET -13.229000 4.813004 -0.593300
		CHANNELS 3 Xrotation Yrotation Zrotation
		End Site
		{
			OFFSET 0.000000 21.880577 0.000000
		}
	}
	JOINT OccupyGuyFacialAnim_Joint
	{
		OFFSET 1.000000 -70.206398 -1.655000
		CHANNELS 3 Xrotation Yrotation Zrotation
		End Site
		{
			OFFSET 0.000000 21.880577 0.000000
		}
	}
}
MOTION
Frames: 4
Frame Time: 0.016667
9.875544 45.817276 -27.877060 49.364605 -31.789886 16.788771 -0.000000 -0.000001 -0.000000 -62.950152 -6.117571 2.006549 112.274096 -14.272423 0.318732 -3.662238 -6.208984 -9.155767 -0.000002 0.000001 0.000000 0.000001 -0.000001 -0.000000 -100.452364 -10.808330 -17.592255 109.063798 -12.045736 6.587636 -35.776920 -10.545565 6.826447 0.000000 0.000001 0.000000 -0.000001 -0.000003 -0.000001 30.578781 10.555178 2.847014 6.860053 2.066863 1.129957 6.835838 2.135324 1.146298 -7.949792 -4.235515 1.372954 -21.131442 -17.422412 -7.101427 0.000001 0.000000 0.000001 0.000001 0.000000 0.000001 0.000001 0.000000 0.000002 0.000001 0.000000 -0.000000 0.000002 -0.000002 0.000001 0.000001 0.000000 -0.000000 0.000002 -0.000002 0.000001 0.000001 0.000000 0.000001 0.000001 0.000000 0.000001 5.673085 -23.734088 -9.066822 -27.862326 -10.438794 -41.186457 -0.000022 -38.893440 -0.000004 -42.320265 -3.346986 4.206381 -1.538529 3.693640 6.118933 3.939070 7.948702 0.746779 -0.000000 -0.000000 0.000000 0.298629 2.009602 -16.903106 0.539676 2.676783 -22.793552 0.000000 -0.000000 0.000002 0.298069 2.007745 -16.887115 0.540430 2.678576 -22.809553 0.000004 0.000001 -0.000001 0.298635 2.009583 -16.903108 0.539670 2.676799 -22.793535 -0.000001 -0.000001 -0.000003 1.465420 5.893262 -16.473132 0.545008 -1.382180 -23.265262 0.000002 0.000000 0.000001 -0.000001 0.000001 -0.000001 -0.454816 29.350993 14.140380 -42.011940 48.862726 12.344898 0.000004 14.620232 -0.000004 -4.045425 -7.800921 -22.899247 -1.848195 -3.584403 -6.569219 4.637200 -8.634131 -0.225406 0.000000 0.000000 0.000004 0.480694 -2.544878 21.389424 1.003302 -3.603107 31.111303 0.000001 0.000001 -0.000003 0.480692 -2.544876 21.389434 1.003307 -3.603116 31.111286 0.000001 -0.000001 0.000001 0.480691 -2.544863 21.389422 1.003308 -3.603116 31.111300 0.000000 -0.000001 -0.000000 0.480691 -2.544879 21.389410 1.003307 -3.603115 31.111327 -0.000001 0.000000 -0.000003 0.000001 0.000002 -0.000000 -0.000001 -0.000000 0.000002 -0.000001 -0.000000 0.000002 -0.000001 -0.000000 0.000004 -0.000001 -0.000000 0.000004 -0.000001 -0.000000 0.000002 -0.000001 -0.000000 0.000002 -0.000001 -0.000000 0.000004 -0.000001 -0.000000 0.000004 -0.000001 -0.000000 0.000002 -0.000001 -0.000000 0.000002 -0.000000 -0.000001 -0.000000 -0.000000 -0.000001 -0.000000 -0.000000 -0.000001 -0.000000 
9.936432 46.017906 -27.813751 48.945098 -32.339757 16.798321 0.000001 0.000001 -0.000002 -64.402373 -6.504448 2.557971 113.281139 -13.616955 -0.059253 -2.725286 -5.801336 -8.688212 -0.000000 0.000001 -0.000001 -0.000002 0.000002 0.000000 -99.606418 -10.830087 -17.333984 108.480801 -11.998260 6.567654 -35.549577 -10.470121 6.965693 -0.000000 0.000000 0.000001 -0.000003 0.000003 -0.000000 30.621060 10.514811 2.562832 6.860454 2.055446 1.057261 6.836468 2.123750 1.073451 -7.756119 -4.044933 1.169396 -20.994367 -16.671645 -7.271154 0.000003 -0.000001 0.000003 0.000003 -0.000001 0.000003 0.000003 -0.000001 0.000002 0.000003 -0.000001 0.000002 0.000002 0.000002 -0.000001 0.000003 -0.000001 0.000002 0.000002 0.000002 -0.000001 0.000003 -0.000001 0.000003 0.000003 -0.000001 0.000003 5.677191 -23.780716 -9.018301 -27.386367 -9.567767 -41.312341 -0.000013 -39.455189 -0.000007 -42.046945 -3.027419 4.146433 -1.537395 3.696272 6.101094 3.939064 7.948709 0.746811 -0.000000 -0.000001 0.000000 0.298623 2.009589 -16.903113 0.539677 2.676792 -22.793547 -0.000001 -0.000001 0.000001 0.298070 2.007737 -16.887124 0.540422 2.678573 -22.809570 -0.000000 -0.000000 0.000004 0.298629 2.009576 -16.903101 0.539663 2.676802 -22.793547 -0.000001 0.000001 -0.000001 1.465416 5.893254 -16.473146 0.545000 -1.382182 -23.265308 0.000002 0.000002 -0.000002 0.000000 0.000001 -0.000000 -0.367062 28.852362 13.849365 -40.871606 48.371526 12.524504 -0.000005 16.563842 0.000006 -4.109967 -7.929973 -21.633342 -1.847392 -3.586388 -6.556331 4.637197 -8.634122 -0.225400 -0.000001 -0.000001 -0.000005 0.480694 -2.544876 21.389426 1.003309 -3.603106 31.111300 0.000001 -0.000000 0.000000 0.480691 -2.544876 21.389426 1.003311 -3.603108 31.111320 -0.000003 -0.000000 0.000001 0.480692 -2.544861 21.389427 1.003308 -3.603118 31.111310 -0.000002 0.000001 0.000002 0.480692 -2.544877 21.389415 1.003315 -3.603118 31.111314 -0.000001 0.000000 -0.000001 0.000002 0.000001 -0.000000 0.000000 -0.000000 -0.000001 -0.000000 -0.000000 0.000000 0.000000 -0.000000 -0.000001 0.000000 -0.000000 -0.000001 0.000000 -0.000000 -0.000001 -0.000000 -0.000000 0.000001 0.000000 -0.000000 -0.000001 0.000000 -0.000000 -0.000001 0.000000 -0.000000 -0.000001 -0.000000 -0.000000 0.000001 0.000001 0.000001 -0.000002 0.000001 0.000001 -0.000002 0.000001 0.000001 -0.000002 
9.984013 46.232151 -27.714611 48.475225 -32.889417 16.814491 -0.000002 0.000003 -0.000001 -65.837915 -6.897397 2.978995 114.239497 -13.362282 -0.166120 -1.811916 -5.037055 -8.711446 -0.000000 0.000001 -0.000001 -0.000002 -0.000003 -0.000001 -98.651728 -10.815760 -17.103369 107.872360 -11.943948 6.545073 -35.370749 -10.378622 7.138675 0.000000 0.000001 0.000000 -0.000000 -0.000003 -0.000005 30.728072 10.494873 2.233001 6.900519 2.048715 0.955036 6.876939 2.117283 0.970888 -7.571715 -3.834395 0.935132 -20.880411 -15.870595 -7.421773 -0.000002 -0.000003 0.000002 -0.000002 -0.000003 0.000002 -0.000002 -0.000003 0.000001 -0.000002 -0.000003 0.000001 0.000001 0.000000 -0.000000 -0.000002 -0.000003 0.000001 0.000001 0.000000 -0.000000 -0.000002 -0.000003 0.000002 -0.000002 -0.000003 0.000002 5.697511 -23.899190 -8.949577 -27.065943 -8.692573 -41.259837 -0.000001 -40.071593 0.000008 -41.576488 -2.697395 3.764258 -1.540049 3.690180 6.142364 3.939062 7.948710 0.746808 0.000004 0.000002 0.000003 0.298624 2.009584 -16.903111 0.539680 2.676802 -22.793547 0.000001 0.000000 -0.000000 0.298069 2.007742 -16.887086 0.540428 2.678581 -22.809581 0.000006 0.000003 0.000003 0.298632 2.009565 -16.903113 0.539684 2.676816 -22.793545 0.000002 0.000001 0.000000 1.465418 5.893262 -16.473124 0.545007 -1.382180 -23.265323 -0.000001 0.000002 -0.000000 0.000001 0.000001 0.000001 -0.244512 28.311465 13.397232 -39.815908 48.075267 12.701004 -0.000001 18.268888 -0.000006 -4.377008 -7.996912 -20.176826 -1.846504 -3.588584 -6.542164 4.637201 -8.634128 -0.225407 -0.000001 -0.000000 0.000003 0.480694 -2.544880 21.389400 1.003310 -3.603105 31.111303 0.000001 -0.000001 0.000000 0.480693 -2.544873 21.389429 1.003309 -3.603119 31.111276 0.000000 0.000000 -0.000001 0.480693 -2.544861 21.389412 1.003310 -3.603121 31.111293 0.000001 -0.000001 -0.000001 0.480692 -2.544876 21.389414 1.003309 -3.603118 31.111297 -0.000001 0.000000 -0.000001 0.000001 -0.000002 0.000001 -0.000000 0.000000 -0.000004 -0.000001 0.000000 -0.000001 -0.000000 0.000000 -0.000003 -0.000000 0.000000 -0.000003 -0.000000 0.000000 -0.000004 -0.000001 0.000000 -0.000001 -0.000000 0.000000 -0.000003 -0.000000 0.000000 -0.000003 -0.000000 0.000000 -0.000004 -0.000001 0.000000 -0.000001 -0.000002 0.000003 -0.000001 -0.000002 0.000003 -0.000001 -0.000002 0.000003 -0.000001 
10.014395 46.475098 -27.578518 47.917045 -33.454485 16.858206 0.000001 0.000001 -0.000002 -67.117209 -7.301148 3.277750 115.123521 -13.353577 -0.114221 -1.235887 -4.519851 -8.939348 0.000001 0.000000 0.000000 -0.000000 -0.000001 -0.000002 -97.548646 -10.749610 -16.844681 107.209525 -11.891940 6.488112 -35.249097 -10.327313 7.293705 0.000000 0.000000 0.000000 -0.000002 0.000000 -0.000000 30.933585 10.477204 1.820767 6.923765 2.044802 0.861482 6.900695 2.113032 0.877189 -7.371915 -3.600006 0.660445 -20.823140 -15.011135 -7.545703 -0.000003 -0.000001 -0.000000 -0.000003 -0.000001 -0.000000 -0.000003 -0.000001 -0.000001 -0.000003 -0.000001 -0.000002 -0.000001 -0.000001 0.000003 -0.000003 -0.000001 -0.000002 -0.000001 -0.000001 0.000003 -0.000003 -0.000001 -0.000000 -0.000003 -0.000001 -0.000000 5.758445 -24.143196 -8.911101 -26.806442 -7.789639 -40.855565 -0.000013 -40.789719 -0.000023 -40.997435 -2.407539 3.305833 -1.540052 3.690189 6.142371 3.939047 7.948701 0.746806 -0.000002 -0.000003 -0.000003 0.298632 2.009599 -16.903086 0.539677 2.676781 -22.793547 -0.000001 0.000000 -0.000002 0.298065 2.007750 -16.887074 0.540413 2.678562 -22.809577 0.000001 0.000000 0.000002 0.298638 2.009580 -16.903076 0.539666 2.676793 -22.793550 -0.000000 0.000003 -0.000001 1.465416 5.893269 -16.473101 0.545005 -1.382180 -23.265298 0.000000 0.000000 0.000001 -0.000001 -0.000001 0.000001 -0.090555 27.840278 12.771128 -38.951609 47.768758 12.863076 -0.000007 19.980740 0.000007 -4.789539 -8.173845 -18.486383 -1.849255 -3.581784 -6.586124 4.637201 -8.634131 -0.225396 -0.000002 -0.000002 -0.000004 0.480687 -2.544872 21.389412 1.003306 -3.603106 31.111334 0.000001 0.000000 0.000000 0.480690 -2.544869 21.389424 1.003309 -3.603119 31.111320 0.000001 -0.000001 0.000001 0.480689 -2.544853 21.389417 1.003310 -3.603125 31.111314 -0.000002 0.000001 0.000001 0.480688 -2.544872 21.389419 1.003308 -3.603118 31.111324 0.000001 -0.000000 -0.000001 0.000001 -0.000002 -0.000000 0.000000 -0.000000 0.000001 0.000000 0.000000 0.000000 0.000000 -0.000000 0.000001 0.000000 -0.000000 0.000001 0.000000 -0.000000 0.000001 0.000000 0.000000 0.000001 0.000000 -0.000000 0.000001 0.000000 -0.000000 0.000001 0.000000 -0.000000 0.000001 0.000000 0.000000 0.000001 0.000001 0.000001 -0.000002 0.000001 0.000001 -0.000002 0.000001 0.000001 -0.000002 
